{
	"asset":{
		"generator":"Khronos glTF Blender I/O v4.0.44",
		"version":"2.0"
	},
	"scene":0,
	"scenes":[
		{
			"name":"Scene",
			"nodes":[
				9,
				10,
				11,
				12,
				13
			]
		}
	],
	"nodes":[
		{
			"mesh":0,
			"name":"Car_Bottom_0"
		},
		{
			"mesh":1,
			"name":"Car_CarBody_0"
		},
		{
			"mesh":2,
			"name":"Car_Details_0"
		},
		{
			"mesh":3,
			"name":"Car_Details_Transparent_0"
		},
		{
			"mesh":4,
			"name":"Car_Interior_0"
		},
		{
			"mesh":5,
			"name":"Car_Windows_0"
		},
		{
			"children":[
				0,
				1,
				2,
				3,
				4,
				5
			],
			"name":"Car"
		},
		{
			"children":[
				6
			],
			"name":"RootNode.001"
		},
		{
			"children":[
				7
			],
			"name":"0eb447ef736e4d09b719e87df8ef4480.fbx"
		},
		{
			"children":[
				8
			],
			"name":"Sketchfab_model.001"
		},
		{
			"name":"wheel_socket_0",
			"translation":[
				10.902261734008789,
				3.4460511207580566,
				-5.734212875366211
			]
		},
		{
			"name":"wheel_socket_1",
			"translation":[
				10.902261734008789,
				3.4460511207580566,
				5.489786148071289
			]
		},
		{
			"name":"wheel_socket_2",
			"translation":[
				-10.724803924560547,
				3.4460511207580566,
				-5.734212875366211
			]
		},
		{
			"name":"wheel_socket_3",
			"translation":[
				-10.724803924560547,
				3.4460511207580566,
				5.489786148071289
			]
		}
	],
	"materials":[
		{
			"doubleSided":true,
			"name":"Bottom",
			"normalTexture":{
				"index":0
			},
			"occlusionTexture":{
				"index":1
			},
			"pbrMetallicRoughness":{
				"baseColorTexture":{
					"index":2
				},
				"metallicRoughnessTexture":{
					"index":1
				}
			}
		},
		{
			"doubleSided":true,
			"name":"CarBody",
			"normalTexture":{
				"index":3
			},
			"occlusionTexture":{
				"index":4
			},
			"pbrMetallicRoughness":{
				"baseColorTexture":{
					"index":5
				},
				"metallicRoughnessTexture":{
					"index":4
				}
			}
		},
		{
			"doubleSided":true,
			"name":"Details",
			"normalTexture":{
				"index":6
			},
			"occlusionTexture":{
				"index":7
			},
			"pbrMetallicRoughness":{
				"baseColorTexture":{
					"index":8
				},
				"metallicRoughnessTexture":{
					"index":7
				}
			}
		},
		{
			"alphaMode":"BLEND",
			"doubleSided":true,
			"name":"Details_Transparent",
			"normalTexture":{
				"index":9
			},
			"occlusionTexture":{
				"index":10
			},
			"pbrMetallicRoughness":{
				"baseColorFactor":[
					1,
					1,
					1,
					0.5
				],
				"baseColorTexture":{
					"index":11
				},
				"metallicRoughnessTexture":{
					"index":10
				}
			}
		},
		{
			"doubleSided":true,
			"name":"Interior",
			"normalTexture":{
				"index":12
			},
			"pbrMetallicRoughness":{
				"baseColorTexture":{
					"index":13
				},
				"metallicFactor":0
			}
		},
		{
			"alphaMode":"BLEND",
			"doubleSided":true,
			"name":"Windows",
			"normalTexture":{
				"index":14
			},
			"occlusionTexture":{
				"index":15
			},
			"pbrMetallicRoughness":{
				"baseColorFactor":[
					1,
					1,
					1,
					0.9900000095367432
				],
				"baseColorTexture":{
					"index":16
				},
				"metallicFactor":0,
				"metallicRoughnessTexture":{
					"index":15
				}
			}
		}
	],
	"meshes":[
		{
			"name":"Car_Bottom_0",
			"primitives":[
				{
					"attributes":{
						"POSITION":0,
						"NORMAL":1,
						"TEXCOORD_0":2
					},
					"indices":3,
					"material":0
				}
			]
		},
		{
			"name":"Car_CarBody_0",
			"primitives":[
				{
					"attributes":{
						"POSITION":4,
						"NORMAL":5,
						"TEXCOORD_0":6
					},
					"indices":7,
					"material":1
				}
			]
		},
		{
			"name":"Car_Details_0",
			"primitives":[
				{
					"attributes":{
						"POSITION":8,
						"NORMAL":9,
						"TEXCOORD_0":10
					},
					"indices":11,
					"material":2
				}
			]
		},
		{
			"name":"Car_Details_Transparent_0",
			"primitives":[
				{
					"attributes":{
						"POSITION":12,
						"NORMAL":13,
						"TEXCOORD_0":14
					},
					"indices":15,
					"material":3
				}
			]
		},
		{
			"name":"Car_Interior_0",
			"primitives":[
				{
					"attributes":{
						"POSITION":16,
						"NORMAL":17,
						"TEXCOORD_0":18
					},
					"indices":19,
					"material":4
				}
			]
		},
		{
			"name":"Car_Windows_0",
			"primitives":[
				{
					"attributes":{
						"POSITION":20,
						"NORMAL":21,
						"TEXCOORD_0":22
					},
					"indices":23,
					"material":5
				}
			]
		}
	],
	"textures":[
		{
			"sampler":0,
			"source":0
		},
		{
			"sampler":0,
			"source":1
		},
		{
			"sampler":0,
			"source":2
		},
		{
			"sampler":0,
			"source":3
		},
		{
			"sampler":0,
			"source":4
		},
		{
			"sampler":0,
			"source":5
		},
		{
			"sampler":0,
			"source":6
		},
		{
			"sampler":0,
			"source":7
		},
		{
			"sampler":0,
			"source":8
		},
		{
			"sampler":0,
			"source":6
		},
		{
			"sampler":0,
			"source":7
		},
		{
			"sampler":0,
			"source":9
		},
		{
			"sampler":0,
			"source":10
		},
		{
			"sampler":0,
			"source":11
		},
		{
			"sampler":0,
			"source":12
		},
		{
			"sampler":0,
			"source":13
		},
		{
			"sampler":0,
			"source":14
		}
	],
	"images":[
		{
			"mimeType":"image/png",
			"name":"Bottom_normal",
			"uri":"textures/Bottom_normal.png"
		},
		{
			"mimeType":"image/png",
			"name":"Bottom_metallicRoughness",
			"uri":"textures/Bottom_metallicRoughness.png"
		},
		{
			"mimeType":"image/png",
			"name":"Bottom_baseColor",
			"uri":"textures/Bottom_baseColor.png"
		},
		{
			"mimeType":"image/png",
			"name":"CarBody_normal",
			"uri":"textures/CarBody_normal.png"
		},
		{
			"mimeType":"image/png",
			"name":"CarBody_metallicRoughness",
			"uri":"textures/CarBody_metallicRoughness.png"
		},
		{
			"mimeType":"image/png",
			"name":"CarBody_baseColor",
			"uri":"textures/CarBody_baseColor.png"
		},
		{
			"mimeType":"image/png",
			"name":"Details_normal",
			"uri":"textures/Details_normal.png"
		},
		{
			"mimeType":"image/png",
			"name":"Details_metallicRoughness",
			"uri":"textures/Details_metallicRoughness.png"
		},
		{
			"mimeType":"image/png",
			"name":"Details_baseColor",
			"uri":"textures/Details_baseColor.png"
		},
		{
			"mimeType":"image/png",
			"name":"Details_Transparent_baseColor",
			"uri":"textures/Details_Transparent_baseColor.png"
		},
		{
			"mimeType":"image/png",
			"name":"Interior_normal",
			"uri":"textures/Interior_normal.png"
		},
		{
			"mimeType":"image/png",
			"name":"Interior_baseColor",
			"uri":"textures/Interior_baseColor.png"
		},
		{
			"mimeType":"image/png",
			"name":"Windows_normal",
			"uri":"textures/Windows_normal.png"
		},
		{
			"mimeType":"image/png",
			"name":"Windows_metallicRoughness",
			"uri":"textures/Windows_metallicRoughness.png"
		},
		{
			"mimeType":"image/png",
			"name":"Windows_baseColor",
			"uri":"textures/Windows_baseColor.png"
		}
	],
	"accessors":[
		{
			"bufferView":0,
			"componentType":5126,
			"count":2687,
			"max":[
				19.872913360595703,
				5.424678802490234,
				6.449324607849121
			],
			"min":[
				-9.905797958374023,
				2.1182448863983154,
				-6.462622165679932
			],
			"type":"VEC3"
		},
		{
			"bufferView":1,
			"componentType":5126,
			"count":2687,
			"type":"VEC3"
		},
		{
			"bufferView":2,
			"componentType":5126,
			"count":2687,
			"type":"VEC2"
		},
		{
			"bufferView":3,
			"componentType":5123,
			"count":6540,
			"type":"SCALAR"
		},
		{
			"bufferView":4,
			"componentType":5126,
			"count":3620,
			"max":[
				20.916913986206055,
				13.276008605957031,
				7.610131740570068
			],
			"min":[
				-16.385761260986328,
				2.7310500144958496,
				-7.610130786895752
			],
			"type":"VEC3"
		},
		{
			"bufferView":5,
			"componentType":5126,
			"count":3620,
			"type":"VEC3"
		},
		{
			"bufferView":6,
			"componentType":5126,
			"count":3620,
			"type":"VEC2"
		},
		{
			"bufferView":7,
			"componentType":5123,
			"count":12351,
			"type":"SCALAR"
		},
		{
			"bufferView":8,
			"componentType":5126,
			"count":5283,
			"max":[
				20.440916061401367,
				9.8939790725708,
				7.982171058654785
			],
			"min":[
				-16.432533264160156,
				1.3663249015808105,
				-7.982168674468994
			],
			"type":"VEC3"
		},
		{
			"bufferView":9,
			"componentType":5126,
			"count":5283,
			"type":"VEC3"
		},
		{
			"bufferView":10,
			"componentType":5126,
			"count":5283,
			"type":"VEC2"
		},
		{
			"bufferView":11,
			"componentType":5123,
			"count":10854,
			"type":"SCALAR"
		},
		{
			"bufferView":12,
			"componentType":5126,
			"count":219,
			"max":[
				20.404516220092773,
				7.174376964569092,
				6.566532611846924
			],
			"min":[
				-15.91969108581543,
				5.311127185821533,
				-6.566529273986816
			],
			"type":"VEC3"
		},
		{
			"bufferView":13,
			"componentType":5126,
			"count":219,
			"type":"VEC3"
		},
		{
			"bufferView":14,
			"componentType":5126,
			"count":219,
			"type":"VEC2"
		},
		{
			"bufferView":15,
			"componentType":5123,
			"count":360,
			"type":"SCALAR"
		},
		{
			"bufferView":16,
			"componentType":5126,
			"count":790,
			"max":[
				13.708576202392578,
				11.174942016601562,
				6.466949462890625
			],
			"min":[
				-2.2569918632507324,
				3.9251773357391357,
				-6.465985298156738
			],
			"type":"VEC3"
		},
		{
			"bufferView":17,
			"componentType":5126,
			"count":790,
			"type":"VEC3"
		},
		{
			"bufferView":18,
			"componentType":5126,
			"count":790,
			"type":"VEC2"
		},
		{
			"bufferView":19,
			"componentType":5123,
			"count":3480,
			"type":"SCALAR"
		},
		{
			"bufferView":20,
			"componentType":5126,
			"count":134,
			"max":[
				13.878663063049316,
				12.594197273254395,
				6.707759857177734
			],
			"min":[
				-6.789395809173584,
				8.641721725463867,
				-6.7067952156066895
			],
			"type":"VEC3"
		},
		{
			"bufferView":21,
			"componentType":5126,
			"count":134,
			"type":"VEC3"
		},
		{
			"bufferView":22,
			"componentType":5126,
			"count":134,
			"type":"VEC2"
		},
		{
			"bufferView":23,
			"componentType":5123,
			"count":504,
			"type":"SCALAR"
		}
	],
	"bufferViews":[
		{
			"buffer":0,
			"byteLength":32244,
			"byteOffset":0,
			"target":34962
		},
		{
			"buffer":0,
			"byteLength":32244,
			"byteOffset":32244,
			"target":34962
		},
		{
			"buffer":0,
			"byteLength":21496,
			"byteOffset":64488,
			"target":34962
		},
		{
			"buffer":0,
			"byteLength":13080,
			"byteOffset":85984,
			"target":34963
		},
		{
			"buffer":0,
			"byteLength":43440,
			"byteOffset":99064,
			"target":34962
		},
		{
			"buffer":0,
			"byteLength":43440,
			"byteOffset":142504,
			"target":34962
		},
		{
			"buffer":0,
			"byteLength":28960,
			"byteOffset":185944,
			"target":34962
		},
		{
			"buffer":0,
			"byteLength":24702,
			"byteOffset":214904,
			"target":34963
		},
		{
			"buffer":0,
			"byteLength":63396,
			"byteOffset":239608,
			"target":34962
		},
		{
			"buffer":0,
			"byteLength":63396,
			"byteOffset":303004,
			"target":34962
		},
		{
			"buffer":0,
			"byteLength":42264,
			"byteOffset":366400,
			"target":34962
		},
		{
			"buffer":0,
			"byteLength":21708,
			"byteOffset":408664,
			"target":34963
		},
		{
			"buffer":0,
			"byteLength":2628,
			"byteOffset":430372,
			"target":34962
		},
		{
			"buffer":0,
			"byteLength":2628,
			"byteOffset":433000,
			"target":34962
		},
		{
			"buffer":0,
			"byteLength":1752,
			"byteOffset":435628,
			"target":34962
		},
		{
			"buffer":0,
			"byteLength":720,
			"byteOffset":437380,
			"target":34963
		},
		{
			"buffer":0,
			"byteLength":9480,
			"byteOffset":438100,
			"target":34962
		},
		{
			"buffer":0,
			"byteLength":9480,
			"byteOffset":447580,
			"target":34962
		},
		{
			"buffer":0,
			"byteLength":6320,
			"byteOffset":457060,
			"target":34962
		},
		{
			"buffer":0,
			"byteLength":6960,
			"byteOffset":463380,
			"target":34963
		},
		{
			"buffer":0,
			"byteLength":1608,
			"byteOffset":470340,
			"target":34962
		},
		{
			"buffer":0,
			"byteLength":1608,
			"byteOffset":471948,
			"target":34962
		},
		{
			"buffer":0,
			"byteLength":1072,
			"byteOffset":473556,
			"target":34962
		},
		{
			"buffer":0,
			"byteLength":1008,
			"byteOffset":474628,
			"target":34963
		}
	],
	"samplers":[
		{
			"magFilter":9729,
			"minFilter":9987
		}
	],
	"buffers":[
		{
			"byteLength":475636,
			"uri":"scene.bin"
		}
	]
}
