{
	"asset":{
		"generator":"Khronos glTF Blender I/O v4.0.44",
		"version":"2.0"
	},
	"scene":0,
	"scenes":[
		{
			"name":"Scene",
			"nodes":[
				0
			]
		}
	],
	"nodes":[
		{
			"mesh":0,
			"name":"wheel",
			"rotation":[
				-0.70710688829422,
				0,
				0,
				0.7071066498756409
			]
		}
	],
	"materials":[
		{
			"doubleSided":true,
			"name":"wheels.002",
			"normalTexture":{
				"index":0
			},
			"pbrMetallicRoughness":{
				"baseColorTexture":{
					"index":1
				},
				"metallicRoughnessTexture":{
					"index":2
				}
			}
		}
	],
	"meshes":[
		{
			"name":"wheel_00_wheels_0.003",
			"primitives":[
				{
					"attributes":{
						"POSITION":0,
						"NORMAL":1,
						"TEXCOORD_0":2,
						"TEXCOORD_1":3
					},
					"indices":4,
					"material":0
				}
			]
		}
	],
	"textures":[
		{
			"sampler":0,
			"source":0
		},
		{
			"sampler":0,
			"source":1
		},
		{
			"sampler":0,
			"source":2
		}
	],
	"images":[
		{
			"mimeType":"image/png",
			"name":"wheels_normal",
			"uri":"textures/wheels_normal.png"
		},
		{
			"mimeType":"image/png",
			"name":"wheels_baseColor",
			"uri":"textures/wheels_baseColor.png"
		},
		{
			"mimeType":"image/png",
			"name":"wheels_metallicRoughness",
			"uri":"textures/wheels_metallicRoughness.png"
		}
	],
	"accessors":[
		{
			"bufferView":0,
			"componentType":5126,
			"count":1588,
			"max":[
				2.5383503437042236,
				2.5383479595184326,
				0.716396152973175
			],
			"min":[
				-2.5383493900299072,
				-2.538353681564331,
				-0.7163973450660706
			],
			"type":"VEC3"
		},
		{
			"bufferView":1,
			"componentType":5126,
			"count":1588,
			"type":"VEC3"
		},
		{
			"bufferView":2,
			"componentType":5126,
			"count":1588,
			"type":"VEC2"
		},
		{
			"bufferView":3,
			"componentType":5126,
			"count":1588,
			"type":"VEC2"
		},
		{
			"bufferView":4,
			"componentType":5123,
			"count":4968,
			"type":"SCALAR"
		}
	],
	"bufferViews":[
		{
			"buffer":0,
			"byteLength":19056,
			"byteOffset":0,
			"target":34962
		},
		{
			"buffer":0,
			"byteLength":19056,
			"byteOffset":19056,
			"target":34962
		},
		{
			"buffer":0,
			"byteLength":12704,
			"byteOffset":38112,
			"target":34962
		},
		{
			"buffer":0,
			"byteLength":12704,
			"byteOffset":50816,
			"target":34962
		},
		{
			"buffer":0,
			"byteLength":9936,
			"byteOffset":63520,
			"target":34963
		}
	],
	"samplers":[
		{
			"magFilter":9729,
			"minFilter":9987
		}
	],
	"buffers":[
		{
			"byteLength":73456,
			"uri":"scene.bin"
		}
	]
}
